<svg width="208" height="52" viewBox="0 0 208 52" fill="none" xmlns="http://www.w3.org/2000/svg">
<rect width="208" height="52" fill="white"/>
<rect width="208" height="52" fill="white"/>
<line y1="42.5" x2="208" y2="42.5" stroke="black" stroke-width="3"/>
<path d="M8.57191 35V19.6H11.4319V32.58H19.4839V35H8.57191ZM21.7418 35V19.6H24.6018V35H21.7418ZM27.6012 35V33.086L37.5452 20.942L37.8752 22.02H27.7552V19.6H40.4492V21.514L30.5052 33.658L30.1532 32.58H40.7352V35H27.6012ZM45.9951 26.002H53.6511V28.356H45.9951V26.002ZM46.2151 32.602H54.9051V35H43.3551V19.6H54.5971V21.998H46.2151V32.602ZM60.7334 26.002H68.3894V28.356H60.7334V26.002ZM60.9534 32.602H69.6434V35H58.0934V19.6H69.3354V21.998H60.9534V32.602ZM75.9557 35V22.02H70.8517V19.6H83.9197V22.02H78.8157V35H75.9557ZM96.89 19.6H99.75V35H96.89V19.6ZM88.926 35H86.066V19.6H88.926V35ZM97.11 28.4H88.684V25.958H97.11V28.4ZM117.151 35.22C115.948 35.22 114.841 35.0293 113.829 34.648C112.831 34.252 111.959 33.702 111.211 32.998C110.463 32.2793 109.883 31.436 109.473 30.468C109.062 29.5 108.857 28.444 108.857 27.3C108.857 26.156 109.062 25.1 109.473 24.132C109.883 23.164 110.463 22.328 111.211 21.624C111.973 20.9053 112.861 20.3553 113.873 19.974C114.885 19.578 115.992 19.38 117.195 19.38C118.5 19.38 119.673 19.5927 120.715 20.018C121.771 20.4433 122.658 21.0667 123.377 21.888L121.573 23.648C120.971 23.0467 120.319 22.6067 119.615 22.328C118.925 22.0347 118.163 21.888 117.327 21.888C116.52 21.888 115.772 22.02 115.083 22.284C114.393 22.548 113.799 22.922 113.301 23.406C112.802 23.89 112.413 24.462 112.135 25.122C111.871 25.782 111.739 26.508 111.739 27.3C111.739 28.0773 111.871 28.796 112.135 29.456C112.413 30.116 112.802 30.6953 113.301 31.194C113.799 31.678 114.386 32.052 115.061 32.316C115.735 32.58 116.483 32.712 117.305 32.712C118.067 32.712 118.801 32.5947 119.505 32.36C120.223 32.1107 120.905 31.7 121.551 31.128L123.179 33.262C122.372 33.9073 121.433 34.3987 120.363 34.736C119.307 35.0587 118.236 35.22 117.151 35.22ZM120.473 32.888V27.124H123.179V33.262L120.473 32.888ZM124.773 35L131.703 19.6H134.519L141.471 35H138.479L132.517 21.118H133.661L127.721 35H124.773ZM127.963 31.436L128.733 29.192H137.049L137.819 31.436H127.963ZM146.29 35V28.906L146.928 30.666L140.239 19.6H143.298L148.666 28.51H146.95L152.362 19.6H155.178L148.49 30.666L149.15 28.906V35H146.29ZM159.938 35V22.02H154.834V19.6H167.902V22.02H162.798V35H159.938ZM167.097 35L174.027 19.6H176.843L183.795 35H180.803L174.841 21.118H175.985L170.045 35H167.097ZM170.287 31.436L171.057 29.192H179.373L180.143 31.436H170.287ZM173.587 18.346L176.557 15.332H179.791L175.963 18.346H173.587ZM185.754 35V19.6H188.108L197.766 31.458H196.6V19.6H199.438V35H197.084L187.426 23.142H188.592V35H185.754Z" fill="black"/>
</svg>
